P3
100 50
255
0 0 0 0 0 0 0 0 0 0 0 0 0 0 0 0 0 0 0 0 0 0 0 0 0 0 0 0 0 0 0 0 0 0 0
0 0 0 0 0 0 0 0 0 0 0 0 0 0 0 0 0 0 0 0 0 0 0 0 0 0 0 0 0 0 0 0 0 0 0
0 0 0 0 0 0 0 0 0 0 0 0 0 0 0 0 0 0 0 0 0 0 0 0 0 0 0 0 0 0 0 0 0 0 0
0 0 0 0 0 0 0 0 0 0 0 0 0 0 0 0 0 0 0 0 0 0 0 0 0 0 0 0 0 0 0 0 0 0 0
0 0 0 0 0 0 0 0 0 0 0 0 0 0 0 0 0 0 0 0 0 0 0 0 0 0 0 0 0 0 0 0 0 0 0
0 0 0 0 0 0 0 0 0 0 0 0 0 0 0 0 0 0 0 0 0 0 0 0 0 0 0 0 0 0 0 0 0 0 0
0 0 0 0 0 0 0 0 0 0 0 0 0 0 0 0 0 0 0 0 0 0 0 0 0 0 0 0 0 0 0 0 0 0 0
0 0 0 0 0 0 0 0 0 0 0 0 0 0 0 0 0 0 0 0 0 0 0 0 0 0 0 0 0 0 0 0 0 0 0
0 0 0 0 0 0 0 0 0 0 0 0 0 0 0 0 0 0 0 0
0 0 0 0 0 0 0 0 0 0 0 0 0 0 0 0 0 0 0 0 0 0 0 0 0 0 0 0 0 0 0 0 0 0 0
0 0 0 0 0 0 0 0 0 0 0 0 0 0 0 0 0 0 0 0 0 0 0 0 0 0 0 0 0 0 0 0 0 0 0
0 0 0 0 0 0 0 0 0 0 0 0 0 0 0 0 0 0 0 0 0 0 0 0 0 0 0 0 0 0 0 0 0 0 0
0 0 0 0 0 0 0 0 0 0 0 0 0 0 0 0 0 0 0 0 0 0 0 0 0 0 0 0 0 0 0 0 0 0 0
0 0 0 0 0 0 0 0 0 0 0 0 0 0 0 0 0 0 0 0 0 0 0 0 0 0 0 0 0 0 0 0 0 0 0
0 0 0 0 0 0 0 0 0 0 0 0 0 0 0 0 0 0 0 0 0 0 0 0 0 0 0 0 0 0 0 0 0 0 0
0 0 0 0 0 0 0 0 0 0 0 0 0 0 0 0 0 0 0 0 0 0 0 0 0 0 0 0 0 0 0 0 0 0 0
0 0 0 0 0 0 0 0 0 0 0 0 0 0 0 0 0 0 0 0 0 0 0 0 0 0 0 0 0 0 0 0 0 0 0
0 0 0 0 0 0 0 0 0 0 0 0 0 0 0 0 0 0 0 0
0 0 0 0 0 0 0 0 0 0 0 0 0 0 0 0 0 0 0 0 0 0 0 0 0 0 0 0 0 0 0 0 0 0 0
0 0 0 0 0 0 0 0 0 0 0 0 0 0 0 0 0 0 0 0 0 0 0 0 0 0 0 0 0 0 0 0 0 0 0
0 0 0 0 0 0 0 0 0 0 0 0 0 0 0 0 0 0 0 0 0 0 0 0 0 0 0 0 0 0 0 0 0 0 0
0 0 0 0 0 0 0 0 0 0 0 0 0 0 0 0 0 0 0 0 0 0 0 0 0 0 0 0 0 0 0 0 0 0 0
0 0 0 0 0 0 0 0 0 0 0 0 0 0 0 0 0 0 0 0 0 0 0 0 0 0 0 0 0 0 0 0 0 0 0
0 0 0 0 0 0 0 0 0 0 0 0 0 0 0 0 0 0 0 0 0 0 0 0 0 0 0 0 0 0 0 0 0 0 0
0 0 0 0 0 0 0 0 0 0 0 0 0 0 0 0 0 0 0 0 0 0 0 0 0 0 0 0 0 0 0 0 0 0 0
0 0 0 0 0 0 0 0 0 0 0 0 0 0 0 0 0 0 0 0 0 0 0 0 0 0 0 0 0 0 0 0 0 0 0
0 0 0 0 0 0 0 0 0 0 0 0 0 0 0 0 0 0 0 0
0 0 0 0 0 0 0 0 0 0 0 0 0 0 0 0 0 0 0 0 0 0 0 0 0 0 0 0 0 0 0 0 0 0 0
0 0 0 0 0 0 0 0 0 0 0 0 0 0 0 0 0 0 0 0 0 0 0 0 0 0 0 0 0 0 0 0 0 0 0
0 0 0 0 0 0 0 0 0 0 0 0 0 0 0 0 0 0 0 0 0 0 0 0 0 0 0 0 0 0 0 0 0 0 0
0 0 0 0 0 0 0 0 0 0 0 0 0 0 0 0 0 0 0 0 0 0 0 0 0 0 0 0 0 0 0 0 0 0 0
0 0 0 0 0 0 0 0 0 0 0 0 0 0 0 0 0 0 0 0 0 0 0 0 0 0 0 0 0 0 0 0 0 0 0
0 0 0 0 0 0 0 0 0 0 0 0 0 0 0 0 0 0 0 0 0 0 0 0 0 0 0 0 0 0 0 0 0 0 0
0 0 0 0 0 0 0 0 0 0 0 0 0 0 0 0 0 0 0 0 0 0 0 0 0 0 0 0 0 0 0 0 0 0 0
0 0 0 0 0 0 0 0 0 0 0 0 0 0 0 0 0 0 0 0 0 0 0 0 0 0 0 0 0 0 0 0 0 0 0
0 0 0 0 0 0 0 0 0 0 0 0 0 0 0 0 0 0 0 0
0 0 0 0 0 0 0 0 0 0 0 0 0 0 0 0 0 0 0 0 0 0 0 0 0 0 0 0 0 0 0 0 0 0 0
0 0 0 0 0 0 0 0 0 0 0 0 0 0 0 0 0 0 0 0 0 0 0 0 0 0 0 0 0 0 0 0 0 0 0
0 0 0 0 0 0 0 0 0 0 0 0 0 0 0 0 0 0 0 0 0 0 0 0 0 0 0 0 0 0 0 0 0 0 0
0 0 0 0 0 0 0 0 0 0 0 0 0 0 0 0 0 0 0 0 0 0 0 0 0 0 0 0 0 0 0 0 0 0 0
0 0 0 0 0 0 0 0 0 0 0 0 0 0 0 0 0 0 0 0 0 0 0 0 0 0 0 0 0 0 0 0 0 0 0
0 0 0 0 0 0 0 0 0 0 0 0 0 0 0 0 0 0 0 0 0 0 0 0 0 0 0 0 0 0 0 0 0 0 0
0 0 0 0 0 0 0 0 0 0 0 0 0 0 0 0 0 0 0 0 0 0 0 0 0 0 0 0 0 0 0 0 0 0 0
0 0 0 0 0 0 0 0 0 0 0 0 0 0 0 0 0 0 0 0 0 0 0 0 0 0 0 0 0 0 0 0 0 0 0
0 0 0 0 0 0 0 0 0 0 0 0 0 0 0 0 0 0 0 0
0 0 0 0 0 0 0 0 0 0 0 0 0 0 0 0 0 0 0 0 0 0 0 0 0 0 0 0 0 0 0 0 0 0 0
0 0 0 0 0 0 0 0 0 0 0 0 0 0 0 0 0 0 0 0 0 0 0 0 0 0 0 0 0 0 0 0 0 0 0
0 0 0 0 0 0 0 0 0 0 0 0 0 0 0 0 0 0 0 0 0 0 0 0 0 0 0 0 0 0 0 0 0 0 0
0 0 0 0 0 0 0 0 0 0 0 0 0 0 0 0 0 0 0 0 0 0 0 0 0 0 0 0 0 0 0 0 0 0 0
0 0 0 0 0 0 0 0 0 0 0 0 0 0 0 0 0 0 0 0 0 0 0 0 0 0 0 0 0 0 0 0 0 0 0
0 0 0 0 0 0 0 0 0 0 0 0 0 0 0 0 0 0 0 0 0 0 0 0 0 0 0 0 0 0 0 0 0 0 0
0 0 0 0 0 0 0 0 0 0 0 0 0 0 0 0 0 0 0 0 0 0 0 0 0 0 0 0 0 0 0 0 0 0 0
0 0 0 0 0 0 0 0 0 0 0 0 0 0 0 0 0 0 0 0 0 0 0 0 0 0 0 0 0 0 0 0 0 0 0
0 0 0 0 0 0 0 0 0 0 0 0 0 0 0 0 0 0 0 0
0 0 0 0 0 0 0 0 0 0 0 0 0 0 0 0 0 0 0 0 0 0 0 0 0 0 0 0 0 0 0 0 0 0 0
0 0 0 0 0 0 0 0 0 0 0 0 0 0 0 0 0 0 0 0 0 0 0 0 0 0 0 0 0 0 0 0 0 0 0
0 0 0 0 0 0 0 0 0 0 0 0 0 0 0 0 0 0 0 0 0 0 0 0 0 0 0 0 0 0 0 0 0 0 0
0 0 0 0 0 0 0 0 0 0 0 0 0 0 0 0 0 0 0 0 0 0 0 0 0 0 0 0 0 0 0 0 0 0 0
0 0 0 0 0 0 0 0 0 0 0 0 0 0 0 0 0 0 0 0 0 0 0 0 0 0 0 0 0 0 0 0 0 0 0
0 0 0 0 0 0 0 0 0 0 0 0 0 0 0 0 0 0 0 0 0 0 0 0 0 0 0 0 0 0 0 0 0 0 0
0 0 0 0 0 0 0 0 0 0 0 0 0 0 0 0 0 0 0 0 0 0 0 0 0 0 0 0 0 0 0 0 0 0 0
0 0 0 0 0 0 0 0 0 0 0 0 0 0 0 0 0 0 0 0 0 0 0 0 0 0 0 0 0 0 0 0 0 0 0
0 0 0 0 0 0 0 0 0 0 0 0 0 0 0 0 0 0 0 0
0 0 0 0 0 0 0 0 0 0 0 0 0 0 0 0 0 0 0 0 0 0 0 0 0 0 0 0 0 0 0 0 0 0 0
0 0 0 0 0 0 0 0 0 0 0 0 0 0 0 0 0 0 0 0 0 0 0 0 0 0 0 0 0 0 0 0 0 0 0
0 0 0 0 0 0 0 0 0 0 0 0 0 0 0 0 0 0 0 0 0 0 0 0 0 0 0 0 0 0 0 0 0 0 0
0 0 0 0 0 0 0 0 0 0 0 0 0 0 0 0 0 0 0 0 0 0 0 0 0 0 0 0 0 0 0 0 0 0 0
0 0 0 0 0 0 0 0 0 0 0 0 0 0 0 0 0 0 0 0 0 0 0 0 0 0 0 0 0 0 0 0 0 0 0
0 0 0 0 0 0 0 0 0 0 0 0 0 0 0 0 0 0 0 0 0 0 0 0 0 0 0 0 0 0 0 0 0 0 0
0 0 0 0 0 0 0 0 0 0 0 0 0 0 0 0 0 0 0 0 0 0 0 0 0 0 0 0 0 0 0 0 0 0 0
0 0 0 0 0 0 0 0 0 0 0 0 0 0 0 0 0 0 0 0 0 0 0 0 0 0 0 0 0 0 0 0 0 0 0
0 0 0 0 0 0 0 0 0 0 0 0 0 0 0 0 0 0 0 0
0 0 0 0 0 0 0 0 0 0 0 0 0 0 0 0 0 0 0 0 0 0 0 0 0 0 0 0 0 0 0 0 0 0 0
0 0 0 0 0 0 0 0 0 0 0 0 0 0 0 0 0 0 0 0 0 0 0 0 0 0 0 0 0 0 0 0 0 0 0
0 0 0 0 0 0 0 0 0 0 0 0 0 0 0 0 0 0 0 0 0 0 0 0 0 0 0 0 0 0 0 0 0 0 0
0 0 0 0 0 0 0 0 0 0 0 0 0 0 0 0 0 0 0 0 0 0 0 0 0 0 0 0 0 0 0 0 0 0 0
0 0 0 0 0 0 0 0 0 0 0 0 0 0 0 0 0 0 0 0 0 0 0 0 0 0 0 0 0 0 0 0 0 0 0
0 0 0 0 0 0 0 0 0 0 0 0 0 0 0 0 0 0 0 0 0 0 0 0 0 0 0 0 0 0 0 0 0 0 0
0 0 0 0 0 0 0 0 0 0 0 0 0 0 0 0 0 0 0 0 0 0 0 0 0 0 0 0 0 0 0 0 0 0 0
0 0 0 0 0 0 0 0 0 0 0 0 0 0 0 0 0 0 0 0 0 0 0 0 0 0 0 0 0 0 0 0 0 0 0
0 0 0 0 0 0 0 0 0 0 0 0 0 0 0 0 0 0 0 0
0 0 0 0 0 0 0 0 0 0 0 0 0 0 0 0 0 0 0 0 0 0 0 0 0 0 0 0 0 0 0 0 0 0 0
0 0 0 0 0 0 0 0 0 0 0 0 0 0 0 0 0 0 0 0 0 0 0 0 0 0 0 0 0 0 0 0 0 0 0
0 0 0 0 0 0 0 0 0 0 0 0 0 0 0 0 0 0 0 0 0 0 0 0 0 0 0 0 0 0 0 0 0 0 0
0 0 0 0 0 0 0 0 0 0 0 0 0 0 0 0 0 0 0 0 0 0 0 0 0 0 0 0 0 0 0 0 0 0 0
0 0 0 0 0 0 0 0 0 0 0 0 0 0 0 0 0 0 0 0 0 0 0 0 0 0 0 0 0 0 0 0 0 0 0
0 0 0 0 0 0 0 0 0 0 0 0 0 0 0 0 0 0 0 0 0 0 0 0 0 0 0 0 0 0 0 0 0 0 0
0 0 0 0 0 0 0 0 0 0 0 0 0 0 0 0 0 0 0 0 0 0 0 0 0 0 0 0 0 0 0 0 0 0 0
0 0 0 0 0 0 0 0 0 0 0 0 0 0 0 0 0 0 0 0 0 0 0 0 0 0 0 0 0 0 0 0 0 0 0
0 0 0 0 0 0 0 0 0 0 0 0 0 0 0 0 0 0 0 0
0 0 0 0 0 0 0 0 0 0 0 0 0 0 0 0 0 0 0 0 0 0 0 0 0 0 0 0 0 0 0 0 0 0 0
0 0 0 0 0 0 0 0 0 0 0 0 0 0 0 0 0 0 0 0 0 0 0 0 0 0 0 0 0 0 0 0 0 0 0
0 0 0 0 0 0 0 0 0 0 0 0 0 0 0 0 0 0 0 0 0 0 0 0 0 0 0 0 0 0 0 0 0 0 0
0 0 0 0 0 0 0 0 0 0 0 0 0 0 0 0 0 0 0 0 0 0 0 0 0 0 0 0 0 0 0 0 0 0 0
0 0 0 0 0 0 0 0 0 0 0 0 0 0 0 0 0 0 0 0 0 0 0 0 0 0 0 0 0 0 0 0 0 0 0
0 0 0 0 0 0 0 0 0 0 0 0 0 0 0 0 0 0 0 0 0 0 0 0 0 0 0 0 0 0 0 0 0 0 0
0 0 0 0 0 0 0 0 0 0 0 0 0 0 0 0 0 0 0 0 0 0 0 0 0 0 0 0 0 0 0 0 0 0 0
0 0 0 0 0 0 0 0 0 0 0 0 0 0 0 0 0 0 0 0 0 0 0 0 0 0 0 0 0 0 0 0 0 0 0
0 0 0 0 0 0 0 0 0 0 0 0 0 0 0 0 0 0 0 0
0 0 0 0 0 0 0 0 0 0 0 0 0 0 0 0 0 0 0 0 0 0 0 0 0 0 0 0 0 0 0 0 0 0 0
0 0 0 0 0 0 0 0 0 0 0 0 0 0 0 0 0 0 0 0 0 0 0 0 0 0 0 0 0 0 0 0 0 0 0
0 0 0 0 0 0 0 0 0 0 0 0 0 0 0 0 0 0 0 0 0 0 0 0 0 0 0 0 0 0 0 0 0 0 0
0 0 0 0 0 0 0 0 0 0 0 0 0 0 0 0 0 0 0 0 0 0 0 0 0 0 0 0 0 0 0 0 0 0 0
0 0 0 0 0 0 0 0 0 0 0 0 0 0 0 0 0 0 0 0 0 0 0 0 0 0 0 0 0 0 0 0 0 0 0
0 0 0 0 0 0 0 0 0 0 0 0 0 0 0 0 0 0 0 0 0 0 0 0 0 0 0 0 0 0 0 0 0 0 0
0 0 0 0 0 0 0 0 0 0 0 0 0 0 0 0 0 0 0 0 0 0 0 0 0 0 0 0 0 0 0 0 0 0 0
0 0 0 0 0 0 0 0 0 0 0 0 0 0 0 0 0 0 0 0 0 0 0 0 0 0 0 0 0 0 0 0 0 0 0
0 0 0 0 0 0 0 0 0 0 0 0 0 0 0 0 0 0 0 0
0 0 0 0 0 0 0 0 0 0 0 0 0 0 0 0 0 0 0 0 0 0 0 0 0 0 0 0 0 0 0 0 0 0 0
0 0 0 0 0 0 0 0 0 0 0 0 0 0 0 0 0 0 0 0 0 0 0 0 0 0 0 0 0 0 0 0 0 0 0
0 0 0 0 0 0 0 0 0 0 0 0 0 0 0 0 0 0 0 0 0 0 0 0 0 0 0 0 0 0 0 0 0 0 0
0 0 0 0 0 0 0 0 0 0 0 0 0 0 0 0 0 0 0 0 0 0 0 0 0 0 0 0 0 0 0 0 0 0 0
0 0 0 0 0 0 0 0 0 0 0 0 0 0 0 0 0 0 0 0 0 0 0 0 0 0 0 0 0 0 0 0 0 0 0
0 0 0 0 0 0 0 0 0 0 0 0 0 0 0 0 0 0 0 0 0 0 0 0 0 0 0 0 0 0 0 0 0 0 0
0 0 0 0 0 0 0 0 0 0 0 0 0 0 0 0 0 0 0 0 0 0 0 0 0 0 0 0 0 0 0 0 0 0 0
0 0 0 0 0 0 0 0 0 0 0 0 0 0 0 0 0 0 0 0 0 0 0 0 0 0 0 0 0 0 0 0 0 0 0
0 0 0 0 0 0 0 0 0 0 0 0 0 0 0 0 0 0 0 0
0 0 0 0 0 0 0 0 0 0 0 0 0 0 0 0 0 0 0 0 0 0 0 0 0 0 0 0 0 0 0 0 0 0 0
0 0 0 0 0 0 0 0 0 0 0 0 0 0 0 0 0 0 0 0 0 0 0 0 0 0 0 0 0 0 0 0 0 0 0
0 0 0 0 0 0 0 0 0 0 0 0 0 0 0 0 0 0 0 0 0 0 0 0 0 0 0 0 0 0 0 0 0 0 0
0 0 0 0 0 0 0 0 0 0 0 0 0 0 0 0 0 0 0 0 0 0 0 0 0 0 0 0 0 0 0 0 0 0 0
0 0 0 0 0 0 0 0 0 0 0 0 0 0 0 0 0 0 0 0 0 0 0 0 0 0 0 0 0 0 0 0 0 0 0
0 0 0 0 0 0 0 0 0 0 0 0 0 0 0 0 0 0 0 0 0 0 0 0 0 0 0 0 0 0 0 0 0 0 0
0 0 0 0 0 0 0 0 0 0 0 0 0 0 0 0 0 0 0 0 0 0 0 0 0 0 0 0 0 0 0 0 0 0 0
0 0 0 0 0 0 0 0 0 0 0 0 0 0 0 0 0 0 0 0 0 0 0 0 0 0 0 0 0 0 0 0 0 0 0
0 0 0 0 0 0 0 0 0 0 0 0 0 0 0 0 0 0 0 0
0 0 0 0 0 0 0 0 0 0 0 0 0 0 0 0 0 0 0 0 0 0 0 0 0 0 0 0 0 0 0 0 0 0 0
0 0 0 0 0 0 0 0 0 0 0 0 0 0 0 0 0 0 0 0 0 0 0 0 0 0 0 0 0 0 0 0 0 0 0
0 0 0 0 0 0 0 0 0 0 0 0 0 0 0 0 0 0 0 0 0 0 0 0 0 0 0 0 0 0 0 0 0 0 0
0 0 0 0 0 0 0 0 0 0 0 0 0 0 0 0 0 0 0 0 0 0 0 0 0 0 0 0 0 0 0 0 0 0 0
0 0 0 0 0 0 0 0 0 0 0 0 0 0 0 0 0 0 0 0 0 0 0 0 0 0 0 0 0 0 0 0 0 0 0
0 0 0 0 0 0 0 0 0 0 0 0 0 0 0 0 0 0 0 0 0 0 0 0 0 0 0 0 0 0 0 0 0 0 0
0 0 0 0 0 0 0 0 0 0 0 0 0 0 0 0 0 0 0 0 0 0 0 0 0 0 0 0 0 0 0 0 0 0 0
0 0 0 0 0 0 0 0 0 0 0 0 0 0 0 0 0 0 0 0 0 0 0 0 0 0 0 0 0 0 0 0 0 0 0
0 0 0 0 0 0 0 0 0 0 0 0 0 0 0 0 0 0 0 0
0 0 0 0 0 0 0 0 0 0 0 0 0 0 0 0 0 0 0 0 0 0 0 0 0 0 0 0 0 0 0 0 0 0 0
0 0 0 0 0 0 0 0 0 0 0 0 0 0 0 0 0 0 0 0 0 0 0 0 0 0 0 0 0 0 0 0 0 0 0
0 0 0 0 0 0 0 0 0 0 0 0 0 0 0 0 0 0 0 0 0 0 0 0 0 0 0 0 0 0 0 0 0 0 0
0 0 0 0 0 0 0 0 0 0 0 0 0 0 0 0 0 0 0 0 0 0 0 0 0 0 0 15 146 73 14 136
68 12 118 59 0 0 0 0 0 0 0 0 0 0 0 0 0 0 0 0 0 0 0 0 0 0 0 0 0 0 0 0 0
0 0 0 0 0 0 0 0 0 0 0 0 0 0 0 0 0 0 0 0 0 0 0 0 0 0 0 0 0 0 0 0 0 0 0
0 0 0 0 0 0 0 0 0 0 0 0 0 0 0 0 0 0 0 0 0 0 0 0 0 0 0 0 0 0 0 0 0 0 0
0 0 0 0 0 0 0 0 0 0 0 0 0 0 0 0 0 0 0 0 0 0 0 0 0 0 0 0 0 0 0 0 0 0 0
0 0 0 0 0 0 0 0 0 0 0 0 0 0 0 0 0 0 0 0 0 0 0 0 0
0 0 0 0 0 0 0 0 0 0 0 0 0 0 0 0 0 0 0 0 0 0 0 0 0 0 0 0 0 0 0 0 0 0 0
0 0 0 0 0 0 0 0 0 0 0 0 0 0 0 0 0 0 0 0 0 0 0 0 0 0 0 0 0 0 0 0 0 0 0
0 0 0 0 0 0 0 0 0 0 0 0 0 0 0 0 0 0 0 0 0 0 0 0 0 0 0 0 0 0 0 0 0 0 0
0 0 0 0 0 0 0 0 0 0 0 0 0 0 0 0 0 0 18 182 91 18 181 91 18 175 88 17
166 83 16 155 78 14 142 71 13 126 63 11 107 53 8 78 39 0 0 0 0 0 0 0 0
0 0 0 0 0 0 0 0 0 0 0 0 0 0 0 0 0 0 0 0 0 0 0 0 0 0 0 0 0 0 0 0 0 0 0
0 0 0 0 0 0 0 0 0 0 0 0 0 0 0 0 0 0 0 0 0 0 0 0 0 0 0 0 0 0 0 0 0 0 0
0 0 0 0 0 0 0 0 0 0 0 0 0 0 0 0 0 0 0 0 0 0 0 0 0 0 0 0 0 0 0 0 0 0 0
0 0 0 0 0 0 0 0 0 0 0 0 0 0 0 0 0 0 0 0 0 0 0 0 0 0 0 0 0 0 0 0 0 0 0
0 0
0 0 0 0 0 0 0 0 0 0 0 0 0 0 0 0 0 0 0 0 0 0 0 0 0 0 0 0 0 0 0 0 0 0 0
0 0 0 0 0 0 0 0 0 0 0 0 0 0 0 0 0 0 0 0 0 0 0 0 0 0 0 0 0 0 0 0 0 0 0
0 0 0 0 0 0 0 0 0 0 0 0 0 0 0 0 0 0 0 0 0 0 0 0 0 0 0 0 0 0 0 0 0 0 0
0 0 0 0 0 0 0 0 0 0 0 0 18 185 92 20 196 98 19 194 97 19 188 94 18 180
90 17 171 85 16 160 80 15 147 74 13 133 66 12 117 58 10 97 49 7 72 36
0 0 0 0 0 0 0 0 0 0 0 0 0 0 0 0 0 0 0 0 0 0 0 0 0 0 0 0 0 0 0 0 0 0 0
0 0 0 0 0 0 0 0 0 0 0 0 0 0 0 0 0 0 0 0 0 0 0 0 0 0 0 0 0 0 0 0 0 0 0
0 0 0 0 0 0 0 0 0 0 0 0 0 0 0 0 0 0 0 0 0 0 0 0 0 0 0 0 0 0 0 0 0 0 0
0 0 0 0 0 0 0 0 0 0 0 0 0 0 0 0 0 0 0 0 0 0 0 0 0 0 0 0 0 0 0 0 0 0 0
0 0 0 0 0 0 0
0 0 0 0 0 0 0 0 0 0 0 0 0 0 0 0 0 0 0 0 0 0 0 0 0 0 0 0 0 0 0 0 0 0 0
0 0 0 0 0 0 0 0 0 0 0 0 0 0 0 0 0 0 0 0 0 0 0 0 0 0 0 0 0 0 0 0 0 0 0
0 0 0 0 0 0 0 0 0 0 0 0 0 0 0 0 0 0 0 0 0 0 0 0 0 0 0 0 0 0 0 0 0 0 0
0 0 0 0 0 0 0 0 0 19 190 95 20 202 101 20 201 100 20 196 98 19 189 95
18 181 90 17 171 86 16 160 80 15 148 74 13 134 67 12 119 60 10 102 51
8 81 41 5 54 27 0 0 0 0 0 0 0 0 0 0 0 0 0 0 0 0 0 0 0 0 0 0 0 0 0 0 0
0 0 0 0 0 0 0 0 0 0 0 0 0 0 0 0 0 0 0 0 0 0 0 0 0 0 0 0 0 0 0 0 0 0 0
0 0 0 0 0 0 0 0 0 0 0 0 0 0 0 0 0 0 0 0 0 0 0 0 0 0 0 0 0 0 0 0 0 0 0
0 0 0 0 0 0 0 0 0 0 0 0 0 0 0 0 0 0 0 0 0 0 0 0 0 0 0 0 0 0 0 0 0 0 0
0 0 0 0 0 0 0 0 0 0 0 0
0 0 0 0 0 0 0 0 0 0 0 0 0 0 0 0 0 0 0 0 0 0 0 0 0 0 0 0 0 0 0 0 0 0 0
0 0 0 0 0 0 0 0 0 0 0 0 0 0 0 0 0 0 0 0 0 0 0 0 0 0 0 0 0 0 0 0 0 0 0
0 0 0 0 0 0 0 0 0 0 0 0 0 0 0 0 0 0 0 0 0 0 0 0 0 0 0 0 0 0 0 0 0 0 0
0 0 0 0 0 0 0 0 0 20 203 101 20 204 102 20 200 100 19 195 97 19 187 94
18 179 89 17 169 85 16 158 79 15 146 73 13 133 67 12 119 59 10 102 51
8 84 42 6 61 31 3 30 15 0 0 0 0 0 0 0 0 0 0 0 0 0 0 0 0 0 0 0 0 0 0 0
0 0 0 0 0 0 0 0 0 0 0 0 0 0 0 0 0 0 0 0 0 0 0 0 0 0 0 0 0 0 0 0 0 0 0
0 0 0 0 0 0 0 0 0 0 0 0 0 0 0 0 0 0 0 0 0 0 0 0 0 0 0 0 0 0 0 0 0 0 0
0 0 0 0 0 0 0 0 0 0 0 0 0 0 0 0 0 0 0 0 0 0 0 0 0 0 0 0 0 0 0 0 0 0 0
0 0 0 0 0 0 0 0 0 0 0 0 0
36 36 36 36 36 36 36 36 36 36 36 36 36 36 36 36 36 36 37 37 37 37 37
37 37 37 37 37 37 37 37 37 37 37 37 37 37 37 37 37 37 37 37 37 37 37
37 37 38 38 38 38 38 38 38 38 38 38 38 38 38 38 38 38 38 38 38 38 38
38 38 38 38 38 38 38 38 38 39 39 39 39 39 39 39 39 39 39 39 39 39 39
39 39 39 39 39 39 39 39 39 39 39 39 39 39 39 39 39 39 39 20 197 99 20
203 102 20 202 101 20 197 99 19 191 96 18 184 92 18 175 88 17 165 83
15 155 77 14 143 71 13 130 65 12 116 58 10 100 50 8 83 41 6 62 31 4 36
18 3 26 13 39 39 39 39 39 39 39 39 39 39 39 39 39 39 39 39 39 39 39 39
39 39 39 39 39 39 39 39 39 39 39 39 39 39 39 39 39 39 39 39 39 39 38
38 38 38 38 38 38 38 38 38 38 38 38 38 38 38 38 38 38 38 38 38 38 38
38 38 38 38 38 38 37 37 37 37 37 37 37 37 37 37 37 37 37 37 37 37 37
37 37 37 37 37 37 37 37 37 37 37 37 37 36 36 36 36 36 36 36 36 36 36
36 36 36 36 36 36 36 36 36 36 36 36 36 36 36 36 36 36 36 36 35 35 35
35 35 35
58 58 58 59 59 59 59 59 59 59 59 59 59 59 59 60 60 60 60 60 60 60 60
60 61 61 61 61 61 61 61 61 61 61 61 61 62 62 62 62 62 62 62 62 62 62
62 62 63 63 63 63 63 63 63 63 63 63 63 63 64 64 64 64 64 64 64 64 64
64 64 64 64 64 64 65 65 65 65 65 65 65 65 65 65 65 65 65 65 65 65 65
65 65 65 65 65 65 65 66 66 66 66 66 66 66 66 66 66 66 66 20 198 99 20
200 100 20 198 99 19 193 96 31 199 106 34 195 105 17 170 85 16 160 80
15 150 75 14 138 69 13 126 63 11 112 56 10 97 48 8 79 40 6 60 30 4 36
18 3 26 13 65 65 65 64 64 64 64 64 64 64 64 64 64 64 64 64 64 64 63 63
63 63 63 63 63 63 63 63 63 63 63 63 63 62 62 62 62 62 62 62 62 62 61
61 61 61 61 61 61 61 61 61 61 61 60 60 60 60 60 60 60 60 60 60 60 60
59 59 59 59 59 59 59 59 59 58 58 58 58 58 58 58 58 58 58 58 58 57 57
57 57 57 57 57 57 57 57 57 57 56 56 56 56 56 56 56 56 56 55 55 55 55
55 55 55 55 55 55 55 55 54 54 54 54 54 54 54 54 54 54 54 54 53 53 53
53 53 53
80 80 80 81 81 81 81 81 81 81 81 81 82 82 82 82 82 82 83 83 83 83 83
83 83 83 83 84 84 84 84 84 84 84 84 84 85 85 85 85 85 85 85 85 85 85
85 85 86 86 86 86 86 86 86 86 86 86 86 86 87 87 87 87 87 87 87 87 87
87 87 87 87 87 87 87 87 87 88 88 88 88 88 88 88 88 88 88 88 88 88 88
88 88 88 88 88 88 88 88 88 88 88 88 88 88 88 88 18 180 90 19 194 97 19
195 97 19 192 96 19 187 93 27 189 99 19 174 88 16 164 82 15 154 77 14
144 72 13 132 66 12 120 60 11 106 53 9 91 46 7 75 37 6 56 28 3 33 16 3
26 13 85 85 85 84 84 84 84 84 84 84 84 84 83 83 83 83 83 83 83 83 83
82 82 82 82 82 82 82 82 82 81 81 81 81 81 81 80 80 80 80 80 80 80 80
80 79 79 79 79 79 79 78 78 78 78 78 78 78 78 78 77 77 77 77 77 77 76
76 76 76 76 76 76 76 76 75 75 75 75 75 75 74 74 74 74 74 74 74 74 74
73 73 73 73 73 73 72 72 72 72 72 72 72 72 72 71 71 71 71 71 71 71 71
71 70 70 70 70 70 70 69 69 69 69 69 69 69 69 69 68 68 68 68 68 68 68
68 68
101 101 101 101 101 101 101 101 101 102 102 102 102 102 102 102 102
102 103 103 103 103 103 103 103 103 103 104 104 104 104 104 104 104
104 104 105 105 105 105 105 105 105 105 105 105 105 105 105 105 105
106 106 106 106 106 106 106 106 106 106 106 106 106 106 106 106 106
106 106 106 106 106 106 106 106 106 106 106 106 106 106 106 106 106
106 106 106 106 106 106 106 106 106 106 106 106 106 106 106 106 106
106 106 106 106 106 106 18 178 89 19 188 94 19 188 94 18 185 92 18 180
90 17 173 87 17 166 83 16 157 79 15 148 74 14 137 69 13 126 63 11 113
57 10 100 50 8 85 42 7 68 34 5 50 25 3 28 14 3 26 13 100 100 100 100
100 100 99 99 99 99 99 99 98 98 98 98 98 98 97 97 97 97 97 97 97 97 97
96 96 96 96 96 96 95 95 95 95 95 95 94 94 94 94 94 94 93 93 93 93 93
93 92 92 92 92 92 92 91 91 91 91 91 91 90 90 90 90 90 90 90 90 90 89
89 89 89 89 89 88 88 88 88 88 88 87 87 87 87 87 87 86 86 86 86 86 86
85 85 85 85 85 85 84 84 84 84 84 84 84 84 84 83 83 83 83 83 83 82 82
82 82 82 82 81 81 81 81 81 81 81 81 81 80 80 80 80 80 80
118 118 118 118 118 118 119 119 119 119 119 119 119 119 119 120 120
120 120 120 120 120 120 120 120 120 120 120 120 120 121 121 121 121
121 121 121 121 121 121 121 121 121 121 121 121 121 121 121 121 121
122 122 122 122 122 122 122 122 122 122 122 122 122 122 122 122 122
122 121 121 121 121 121 121 121 121 121 121 121 121 121 121 121 121
121 121 121 121 121 121 121 121 120 120 120 120 120 120 120 120 120
120 120 120 119 119 119 17 171 85 18 179 90 18 180 90 18 177 88 17 172
86 17 165 83 16 158 79 15 149 75 14 140 70 13 129 65 12 118 59 11 106
53 9 92 46 8 77 39 6 61 30 4 42 21 3 26 13 3 26 13 3 26 13 112 112 112
111 111 111 111 111 111 110 110 110 110 110 110 109 109 109 109 109
109 108 108 108 108 108 108 107 107 107 107 107 107 106 106 106 105
105 105 105 105 105 104 104 104 104 104 104 103 103 103 103 103 103
102 102 102 102 102 102 101 101 101 101 101 101 100 100 100 100 100
100 99 99 99 99 99 99 98 98 98 98 98 98 97 97 97 97 97 97 96 96 96 96
96 96 95 95 95 95 95 95 94 94 94 94 94 94 93 93 93 93 93 93 92 92 92
92 92 92 91 91 91 91 91 91 91 91 91 90 90 90 90 90 90
133 133 133 133 133 133 133 133 133 133 133 133 133 133 133 133 133
133 134 134 134 134 134 134 134 134 134 134 134 134 134 134 134 134
134 134 134 134 134 134 134 134 134 134 134 134 134 134 134 134 134
134 134 134 134 134 134 134 134 134 134 134 134 134 134 134 133 133
133 133 133 133 133 133 133 133 133 133 133 133 133 132 132 132 132
132 132 132 132 132 132 132 132 131 131 131 131 131 131 131 131 131
130 130 130 130 130 130 16 159 80 17 169 85 17 170 85 17 167 84 16 163
81 16 156 78 15 149 74 14 140 70 13 131 65 12 121 60 11 109 55 10 97
48 8 83 42 7 69 34 5 52 26 3 33 17 3 26 13 3 26 13 121 121 121 121 121
121 120 120 120 120 120 120 119 119 119 119 119 119 118 118 118 118
118 118 117 117 117 117 117 117 116 116 116 116 116 116 115 115 115
114 114 114 114 114 114 113 113 113 113 113 113 112 112 112 112 112
112 111 111 111 111 111 111 110 110 110 110 110 110 109 109 109 108
108 108 108 108 108 107 107 107 107 107 107 106 106 106 106 106 106
105 105 105 105 105 105 104 104 104 104 104 104 103 103 103 103 103
103 102 102 102 102 102 102 101 101 101 101 101 101 100 100 100 100
100 100 99 99 99 99 99 99 98 98 98 98 98 98
144 144 144 144 144 144 144 144 144 144 144 144 144 144 144 144 144
144 144 144 144 144 144 144 144 144 144 144 144 144 144 144 144 144
144 144 144 144 144 144 144 144 144 144 144 144 144 144 144 144 144
144 144 144 143 143 143 143 143 143 143 143 143 143 143 143 142 142
142 142 142 142 142 142 142 142 142 142 141 141 141 141 141 141 141
141 141 140 140 140 140 140 140 140 140 140 139 139 139 139 139 139
138 138 138 138 138 138 14 142 71 16 157 79 16 159 80 16 157 78 15 152
76 15 146 73 14 139 69 13 130 65 12 121 61 11 111 55 10 99 50 9 87 44
7 74 37 6 59 29 4 42 21 3 26 13 3 26 13 3 26 13 129 129 129 128 128
128 128 128 128 127 127 127 127 127 127 126 126 126 125 125 125 125
125 125 124 124 124 86 173 17 91 183 18 90 179 18 84 168 17 75 149 15
61 122 12 35 71 7 120 120 120 119 119 119 119 119 119 118 118 118 118
118 118 117 117 117 117 117 117 116 116 116 116 116 116 115 115 115
115 115 115 114 114 114 113 113 113 113 113 113 112 112 112 112 112
112 111 111 111 111 111 111 110 110 110 110 110 110 109 109 109 109
109 109 108 108 108 108 108 108 107 107 107 107 107 107 106 106 106
106 106 106 105 105 105 105 105 105
153 153 153 153 153 153 153 153 153 153 153 153 153 153 153 153 153
153 153 153 153 153 153 153 153 153 153 153 153 153 152 152 152 152
152 152 152 152 152 152 152 152 152 152 152 151 151 151 151 151 151
151 151 151 151 151 151 150 150 150 150 150 150 150 150 150 149 149
149 149 149 149 149 149 149 148 148 148 148 148 148 148 148 148 147
147 147 147 147 147 146 146 146 146 146 146 146 146 146 145 145 145
145 145 145 144 144 144 144 144 144 14 143 71 15 146 73 14 145 72 14
141 70 13 135 67 13 128 64 12 119 60 11 110 55 10 100 50 9 89 44 8 76
38 6 62 31 5 47 24 3 30 15 3 26 13 3 26 13 3 26 13 135 135 135 134 134
134 134 134 134 133 133 133 132 132 132 132 132 132 131 131 131 131
131 131 92 185 18 99 198 20 99 199 20 96 192 19 90 180 18 82 163 16 71
141 14 56 111 11 31 63 6 125 125 125 125 125 125 124 124 124 124 124
124 123 123 123 123 123 123 122 122 122 122 122 122 121 121 121 120
120 120 120 120 120 119 119 119 119 119 119 118 118 118 118 118 118
117 117 117 117 117 117 116 116 116 116 116 116 115 115 115 115 115
115 114 114 114 114 114 114 113 113 113 113 113 113 112 112 112 112
112 112 111 111 111 111 111 111
160 160 160 160 160 160 160 160 160 160 160 160 160 160 160 160 160
160 159 159 159 159 159 159 159 159 159 159 159 159 159 159 159 158
158 158 158 158 158 158 158 158 157 157 157 157 157 157 157 157 157
157 157 157 156 156 156 156 156 156 156 156 156 155 155 155 155 155
155 154 154 154 154 154 154 154 154 154 153 153 153 153 153 153 152
152 152 152 152 152 152 152 152 151 151 151 151 151 151 150 150 150
150 150 150 149 149 149 149 149 149 12 123 61 13 131 65 13 131 65 13
127 64 12 122 61 12 115 58 11 107 54 10 98 49 9 88 44 8 76 38 6 64 32
5 50 25 3 34 17 3 26 13 3 26 13 3 26 13 3 26 13 139 139 139 139 139
139 138 138 138 138 138 138 137 137 137 137 137 137 136 136 136 85 169
17 99 198 20 102 204 20 101 202 20 97 194 19 91 183 18 83 167 17 73
146 15 60 120 12 43 85 9 13 26 3 130 130 130 129 129 129 129 129 129
128 128 128 128 128 128 127 127 127 127 127 127 126 126 126 125 125
125 125 125 125 124 124 124 124 124 124 123 123 123 123 123 123 122
122 122 122 122 122 121 121 121 121 121 121 120 120 120 120 120 120
119 119 119 119 119 119 118 118 118 118 118 118 117 117 117 117 117
117 117 117 117 116 116 116
166 166 166 165 165 165 165 165 165 165 165 165 165 165 165 165 165
165 164 164 164 164 164 164 164 164 164 163 163 163 163 163 163 163
163 163 163 163 163 162 162 162 162 162 162 162 162 162 161 161 161
161 161 161 161 161 161 160 160 160 160 160 160 159 159 159 159 159
159 159 159 159 158 158 158 158 158 158 157 157 157 157 157 157 156
156 156 156 156 156 156 156 156 155 155 155 155 155 155 154 154 154
154 154 154 153 153 153 153 153 153 152 152 152 11 111 56 11 114 57 11
112 56 11 108 54 10 101 51 9 94 47 8 84 42 7 74 37 6 63 31 5 50 25 4
36 18 3 26 13 3 26 13 3 26 13 3 26 13 26 26 26 26 26 26 26 26 26 26 26
26 26 26 26 26 26 26 26 26 26 26 26 26 90 180 18 99 197 20 101 201 20
103 202 23 96 192 20 90 179 18 82 164 16 72 144 14 60 120 12 44 89 9
21 42 4 134 134 134 133 133 133 133 133 133 132 132 132 132 132 132
131 131 131 131 131 131 130 130 130 130 130 130 129 129 129 129 129
129 128 128 128 128 128 128 127 127 127 127 127 127 126 126 126 126
126 126 125 125 125 125 125 125 124 124 124 124 124 124 123 123 123
123 123 123 122 122 122 122 122 122 121 121 121 121 121 121 121 121
121
170 170 170 169 169 169 169 169 169 169 169 169 169 169 169 168 168
168 168 168 168 168 168 168 167 167 167 167 167 167 167 167 167 166
166 166 166 166 166 166 166 166 165 165 165 165 165 165 165 165 165
164 164 164 164 164 164 163 163 163 163 163 163 163 163 163 162 162
162 162 162 162 161 161 161 161 161 161 161 161 161 160 160 160 160
160 160 159 159 159 183 146 18 181 145 18 157 126 16 124 99 12 81 65 8
156 156 156 156 156 156 155 155 155 8 79 40 9 93 46 9 94 47 9 91 45 9
85 43 8 78 39 7 69 34 6 59 29 5 47 23 3 34 17 3 26 13 3 26 13 3 26 13
3 26 13 26 26 26 26 26 26 26 26 26 26 26 26 26 26 26 26 26 26 26 26 26
26 26 26 26 26 26 87 174 17 95 190 19 96 193 19 95 190 19 91 182 18 85
171 17 78 156 16 69 137 14 57 114 11 42 84 8 21 42 4 137 137 137 137
137 137 136 136 136 136 136 136 135 135 135 135 135 135 134 134 134
134 134 134 133 133 133 133 133 133 132 132 132 132 132 132 131 131
131 131 131 131 130 130 130 130 130 130 130 130 130 129 129 129 129
129 129 128 128 128 128 128 128 127 127 127 127 127 127 126 126 126
126 126 126 125 125 125 125 125 125 124 124 124
173 173 173 173 173 173 172 172 172 172 172 172 172 172 172 171 171
171 171 171 171 171 171 171 170 170 170 170 170 170 170 170 170 169
169 169 169 169 169 169 169 169 168 168 168 168 168 168 167 167 167
167 167 167 167 167 167 166 166 166 166 166 166 165 165 165 165 165
165 164 164 164 164 164 164 164 164 164 163 163 163 163 163 163 162
162 162 194 156 19 199 160 20 181 145 18 155 124 15 122 98 12 83 66 8
32 25 3 158 158 158 158 158 158 157 157 157 6 57 28 7 69 35 7 69 35 7
65 33 6 59 29 5 50 25 4 40 20 3 28 14 3 26 13 3 26 13 3 26 13 3 26 13
26 26 26 26 26 26 26 26 26 26 26 26 26 26 26 26 26 26 26 26 26 26 26
26 26 26 26 26 26 26 80 160 16 88 176 18 90 180 18 89 177 18 85 170 17
79 159 16 72 144 14 63 126 13 51 103 10 37 73 7 16 32 3 141 141 141
140 140 140 140 140 140 139 139 139 139 139 139 138 138 138 138 138
138 137 137 137 137 137 137 136 136 136 136 136 136 135 135 135 135
135 135 134 134 134 134 134 134 133 133 133 133 133 133 132 132 132
132 132 132 131 131 131 131 131 131 131 131 131 130 130 130 130 130
130 129 129 129 129 129 129 128 128 128 128 128 128
175 175 175 175 175 175 175 175 175 174 174 174 174 174 174 174 174
174 173 173 173 173 173 173 173 173 173 172 172 172 172 172 172 171
171 171 171 171 171 171 171 171 170 170 170 170 170 170 169 169 169
169 169 169 169 169 169 168 168 168 168 168 168 167 167 167 167 167
167 167 167 167 166 166 166 166 166 166 165 165 165 165 165 165 164
164 164 200 160 20 190 152 19 170 136 18 142 114 14 110 88 11 72 57 7
26 20 3 26 20 3 160 160 160 160 160 160 159 159 159 159 159 159 4 38
19 4 39 19 3 34 17 3 27 13 3 26 13 3 26 13 3 26 13 3 26 13 3 26 13 26
26 26 26 26 26 26 26 26 26 26 26 26 26 26 26 26 26 26 26 26 26 26 26
26 26 26 26 26 26 26 26 26 67 135 13 78 156 16 81 162 16 80 160 16 77
153 15 71 142 14 64 128 13 55 110 11 43 86 9 28 56 6 13 26 3 143 143
143 143 143 143 142 142 142 142 142 142 141 141 141 141 141 141 140
140 140 140 140 140 139 139 139 139 139 139 138 138 138 138 138 138
138 138 138 137 137 137 137 137 137 136 136 136 136 136 136 135 135
135 135 135 135 134 134 134 134 134 134 134 134 134 133 133 133 133
133 133 132 132 132 132 132 132 131 131 131 131 131 131
177 177 177 177 177 177 176 176 176 176 176 176 176 176 176 175 175
175 175 175 175 175 175 175 174 174 174 174 174 174 174 174 174 173
173 173 173 173 173 172 172 172 172 172 172 172 172 172 171 171 171
171 171 171 170 170 170 170 170 170 170 170 170 169 169 169 169 169
169 168 168 168 168 168 168 167 167 167 167 167 167 166 166 166 166
166 166 185 148 19 173 138 17 151 121 15 124 99 12 92 73 9 53 43 5 26
20 3 26 20 3 162 162 162 161 161 161 161 161 161 161 161 161 160 160
160 26 26 26 3 26 13 3 26 13 3 26 13 3 26 13 26 26 26 26 26 26 26 26
26 26 26 26 26 26 26 26 26 26 26 26 26 26 26 26 26 26 26 26 26 26 153
153 153 152 152 152 152 152 152 151 151 151 41 82 8 64 128 13 69 137
14 69 137 14 66 132 13 61 122 12 54 107 11 44 89 9 32 65 6 16 32 3 13
26 3 26 26 26 26 26 26 26 26 26 26 26 26 26 26 26 143 143 143 143 143
143 142 142 142 142 142 142 141 141 141 141 141 141 141 141 141 140
140 140 140 140 140 139 139 139 139 139 139 138 138 138 138 138 138
137 137 137 137 137 137 137 137 137 136 136 136 136 136 136 135 135
135 135 135 135 134 134 134 134 134 134 134 134 134
179 179 179 178 178 178 178 178 178 178 178 178 177 177 177 177 177
177 176 176 176 176 176 176 176 176 176 175 175 175 175 175 175 175
175 175 174 174 174 174 174 174 173 173 173 173 173 173 173 173 173
172 172 172 172 172 172 171 171 171 171 171 171 170 170 170 170 170
170 170 170 170 169 169 169 169 169 169 168 168 168 168 168 168 167
167 167 160 128 16 149 119 15 128 102 13 100 80 10 68 54 7 29 23 3 26
20 3 26 20 3 163 163 163 163 163 163 163 163 163 162 162 162 162 162
162 161 161 161 161 161 161 160 160 160 160 160 160 159 159 159 159
159 159 158 158 158 158 158 158 158 158 158 157 157 157 157 157 157
156 156 156 156 156 156 155 155 155 155 155 155 154 154 154 154 154
154 153 153 153 153 153 153 153 153 153 41 81 8 52 103 10 54 108 11 52
104 10 47 94 9 40 80 8 30 61 6 17 34 3 13 26 3 26 26 26 26 26 26 26 26
26 26 26 26 26 26 26 26 26 26 145 145 145 145 145 145 144 144 144 144
144 144 144 144 144 143 143 143 143 143 143 142 142 142 142 142 142
141 141 141 141 141 141 141 141 141 140 140 140 140 140 140 139 139
139 139 139 139 139 139 139 138 138 138 138 138 138 137 137 137 137
137 137 136 136 136 136 136 136
180 180 180 179 179 179 179 179 179 179 179 179 178 178 178 178 178
178 178 178 178 177 177 177 177 177 177 176 176 176 176 176 176 176
176 176 175 175 175 175 175 175 174 174 174 174 174 174 174 174 174
173 173 173 173 173 173 172 172 172 172 172 172 172 172 172 171 171
171 171 171 171 170 170 170 170 170 170 170 170 170 169 169 169 169
169 169 123 99 12 118 94 12 98 78 10 71 56 7 37 30 4 26 20 3 26 20 3
26 26 26 26 26 26 26 26 26 26 26 26 26 26 26 26 26 26 163 163 163 162
162 162 162 162 162 161 161 161 161 161 161 160 160 160 160 160 160
159 159 159 159 159 159 159 159 159 158 158 158 158 158 158 157 157
157 157 157 157 156 156 156 156 156 156 155 155 155 155 155 155 155
155 155 154 154 154 154 154 154 20 40 4 32 63 6 32 65 6 29 57 6 21 43
4 13 26 3 13 26 3 26 26 26 26 26 26 26 26 26 26 26 26 26 26 26 26 26
26 26 26 26 147 147 147 147 147 147 146 146 146 146 146 146 146 146
146 145 145 145 145 145 145 144 144 144 144 144 144 144 144 144 143
143 143 143 143 143 142 142 142 142 142 142 141 141 141 141 141 141
141 141 141 140 140 140 140 140 140 139 139 139 139 139 139 139 139
139 138 138 138
181 181 181 180 180 180 180 180 180 180 180 180 179 179 179 179 179
179 178 178 178 178 178 178 178 178 178 177 177 177 177 177 177 177
177 177 176 176 176 176 176 176 175 175 175 175 175 175 175 175 175
174 174 174 174 174 174 173 173 173 173 173 173 173 173 173 172 172
172 172 172 172 171 171 171 171 171 171 171 171 171 170 170 170 170
170 170 169 169 169 71 57 7 57 46 6 31 25 3 26 20 3 26 20 3 26 26 26
26 26 26 26 26 26 26 26 26 26 26 26 165 165 165 164 164 164 164 164
164 163 163 163 163 163 163 162 162 162 162 162 162 162 162 162 161
161 161 161 161 161 160 160 160 160 160 160 159 159 159 159 159 159
159 159 159 158 158 158 158 158 158 157 157 157 157 157 157 156 156
156 156 156 156 156 156 156 155 155 155 155 155 155 154 154 154 26 26
26 13 26 3 26 26 26 26 26 26 26 26 26 26 26 26 26 26 26 26 26 26 26 26
26 150 150 150 150 150 150 149 149 149 149 149 149 149 149 149 148 148
148 148 148 148 147 147 147 147 147 147 147 147 147 146 146 146 146
146 146 145 145 145 145 145 145 145 145 145 144 144 144 144 144 144
143 143 143 143 143 143 143 143 143 142 142 142 142 142 142 141 141
141 141 141 141 141 141 141 140 140 140
181 181 181 181 181 181 181 181 181 180 180 180 180 180 180 180 180
180 179 179 179 179 179 179 178 178 178 178 178 178 178 178 178 177
177 177 177 177 177 177 177 177 176 176 176 176 176 176 175 175 175
175 175 175 175 175 175 174 174 174 174 174 174 173 173 173 173 173
173 173 173 173 172 172 172 172 172 172 171 171 171 171 171 171 171
171 171 170 170 170 170 170 170 169 169 169 26 26 26 26 26 26 26 26 26
26 26 26 167 167 167 167 167 167 166 166 166 166 166 166 166 166 166
165 165 165 165 165 165 164 164 164 164 164 164 164 164 164 163 163
163 163 163 163 162 162 162 162 162 162 161 161 161 161 161 161 161
161 161 160 160 160 160 160 160 159 159 159 159 159 159 159 159 159
158 158 158 158 158 158 157 157 157 157 157 157 157 157 157 156 156
156 156 156 156 155 155 155 155 155 155 155 155 155 154 154 154 154
154 154 153 153 153 153 153 153 153 153 153 152 152 152 152 152 152
151 151 151 151 151 151 151 151 151 150 150 150 150 150 150 149 149
149 149 149 149 149 149 149 148 148 148 148 148 148 147 147 147 147
147 147 147 147 147 146 146 146 146 146 146 145 145 145 145 145 145
145 145 145 144 144 144 144 144 144 144 144 144 143 143 143 143 143
143 142 142 142 142 142 142
182 182 182 182 182 182 181 181 181 181 181 181 180 180 180 180 180
180 180 180 180 179 179 179 179 179 179 179 179 179 178 178 178 178
178 178 178 178 178 177 177 177 177 177 177 176 176 176 176 176 176
176 176 176 175 175 175 175 175 175 174 174 174 174 174 174 174 174
174 173 173 173 173 173 173 172 172 172 172 172 172 172 172 172 171
171 171 171 171 171 171 171 171 170 170 170 170 170 170 169 169 169
169 169 169 169 169 169 168 168 168 168 168 168 167 167 167 167 167
167 167 167 167 166 166 166 166 166 166 165 165 165 165 165 165 165
165 165 164 164 164 164 164 164 163 163 163 163 163 163 163 163 163
162 162 162 162 162 162 161 161 161 161 161 161 161 161 161 160 160
160 160 160 160 159 159 159 159 159 159 159 159 159 158 158 158 158
158 158 157 157 157 157 157 157 157 157 157 156 156 156 156 156 156
155 155 155 155 155 155 155 155 155 154 154 154 154 154 154 153 153
153 153 153 153 153 153 153 152 152 152 152 152 152 152 152 152 151
151 151 151 151 151 150 150 150 150 150 150 150 150 150 149 149 149
149 149 149 148 148 148 148 148 148 148 148 148 147 147 147 147 147
147 147 147 147 146 146 146 146 146 146 146 146 146 145 145 145 145
145 145 144 144 144 144 144 144 144 144 144
182 182 182 182 182 182 182 182 182 181 181 181 181 181 181 181 181
181 180 180 180 180 180 180 179 179 179 179 179 179 179 179 179 178
178 178 178 178 178 178 178 178 177 177 177 177 177 177 177 177 177
176 176 176 176 176 176 175 175 175 175 175 175 175 175 175 174 174
174 174 174 174 173 173 173 173 173 173 173 173 173 172 172 172 172
172 172 172 172 172 171 171 171 171 171 171 170 170 170 170 170 170
170 170 170 169 169 169 169 169 169 168 168 168 168 168 168 168 168
168 167 167 167 167 167 167 167 167 167 166 166 166 166 166 166 165
165 165 165 165 165 165 165 165 164 164 164 164 164 164 163 163 163
163 163 163 163 163 163 162 162 162 162 162 162 162 162 162 161 161
161 161 161 161 160 160 160 160 160 160 160 160 160 159 159 159 159
159 159 158 158 158 158 158 158 158 158 158 157 157 157 157 157 157
157 157 157 156 156 156 156 156 156 155 155 155 155 155 155 155 155
155 154 154 154 154 154 154 154 154 154 153 153 153 153 153 153 152
152 152 152 152 152 152 152 152 151 151 151 151 151 151 151 151 151
150 150 150 150 150 150 150 150 150 149 149 149 149 149 149 148 148
148 148 148 148 148 148 148 147 147 147 147 147 147 147 147 147 146
146 146 146 146 146 146 146 146 145 145 145
183 183 183 182 182 182 182 182 182 182 182 182 181 181 181 181 181
181 181 181 181 180 180 180 180 180 180 180 180 180 179 179 179 179
179 179 178 178 178 178 178 178 178 178 178 177 177 177 177 177 177
177 177 177 176 176 176 176 176 176 176 176 176 175 175 175 175 175
175 174 174 174 174 174 174 174 174 174 173 173 173 173 173 173 173
173 173 172 172 172 172 172 172 171 171 171 171 171 171 171 171 171
170 170 170 170 170 170 170 170 170 169 169 169 169 169 169 168 168
168 168 168 168 168 168 168 167 167 167 167 167 167 167 167 167 166
166 166 166 166 166 165 165 165 165 165 165 165 165 165 164 164 164
164 164 164 164 164 164 163 163 163 163 163 163 162 162 162 162 162
162 162 162 162 161 161 161 161 161 161 161 161 161 160 160 160 160
160 160 159 159 159 159 159 159 159 159 159 158 158 158 158 158 158
158 158 158 157 157 157 157 157 157 156 156 156 156 156 156 156 156
156 155 155 155 155 155 155 155 155 155 154 154 154 154 154 154 154
154 154 153 153 153 153 153 153 153 153 153 152 152 152 152 152 152
151 151 151 151 151 151 151 151 151 150 150 150 150 150 150 150 150
150 149 149 149 149 149 149 149 149 149 148 148 148 148 148 148 148
148 148 147 147 147 147 147 147 147 147 147
183 183 183 183 183 183 182 182 182 182 182 182 182 182 182 181 181
181 181 181 181 181 181 181 180 180 180 180 180 180 179 179 179 179
179 179 179 179 179 178 178 178 178 178 178 178 178 178 177 177 177
177 177 177 177 177 177 176 176 176 176 176 176 176 176 176 175 175
175 175 175 175 174 174 174 174 174 174 174 174 174 173 173 173 173
173 173 173 173 173 172 172 172 172 172 172 172 172 172 171 171 171
171 171 171 170 170 170 170 170 170 170 170 170 169 169 169 169 169
169 169 169 169 168 168 168 168 168 168 168 168 168 167 167 167 167
167 167 166 166 166 166 166 166 166 166 166 165 165 165 165 165 165
165 165 165 164 164 164 164 164 164 164 164 164 163 163 163 163 163
163 162 162 162 162 162 162 162 162 162 161 161 161 161 161 161 161
161 161 160 160 160 160 160 160 160 160 160 159 159 159 159 159 159
159 159 159 158 158 158 158 158 158 157 157 157 157 157 157 157 157
157 156 156 156 156 156 156 156 156 156 155 155 155 155 155 155 155
155 155 154 154 154 154 154 154 154 154 154 153 153 153 153 153 153
153 153 153 152 152 152 152 152 152 152 152 152 151 151 151 151 151
151 151 151 151 150 150 150 150 150 150 150 150 150 149 149 149 149
149 149 149 149 149 148 148 148 148 148 148
183 183 183 183 183 183 182 182 182 182 182 182 182 182 182 181 181
181 181 181 181 181 181 181 180 180 180 180 180 180 180 180 180 179
179 179 179 179 179 179 179 179 178 178 178 178 178 178 178 178 178
177 177 177 177 177 177 177 177 177 176 176 176 176 176 176 176 176
176 175 175 175 175 175 175 175 175 175 174 174 174 174 174 174 173
173 173 173 173 173 173 173 173 172 172 172 172 172 172 172 172 172
171 171 171 171 171 171 171 171 171 170 170 170 170 170 170 170 170
170 169 169 169 169 169 169 169 169 169 168 168 168 168 168 168 167
167 167 167 167 167 167 167 167 166 166 166 166 166 166 166 166 166
165 165 165 165 165 165 165 165 165 164 164 164 164 164 164 164 164
164 163 163 163 163 163 163 163 163 163 162 162 162 162 162 162 161
161 161 161 161 161 161 161 161 160 160 160 160 160 160 160 160 160
159 159 159 159 159 159 159 159 159 158 158 158 158 158 158 158 158
158 157 157 157 157 157 157 157 157 157 156 156 156 156 156 156 156
156 156 155 155 155 155 155 155 155 155 155 154 154 154 154 154 154
154 154 154 153 153 153 153 153 153 153 153 153 152 152 152 152 152
152 152 152 152 151 151 151 151 151 151 151 151 151 150 150 150 150
150 150 150 150 150 149 149 149 149 149 149
183 183 183 183 183 183 183 183 183 182 182 182 182 182 182 182 182
182 181 181 181 181 181 181 181 181 181 180 180 180 180 180 180 180
180 180 179 179 179 179 179 179 179 179 179 178 178 178 178 178 178
178 178 178 177 177 177 177 177 177 177 177 177 176 176 176 176 176
176 176 176 176 175 175 175 175 175 175 175 175 175 174 174 174 174
174 174 174 174 174 173 173 173 173 173 173 172 172 172 172 172 172
172 172 172 171 171 171 171 171 171 171 171 171 170 170 170 170 170
170 170 170 170 169 169 169 169 169 169 169 169 169 168 168 168 168
168 168 168 168 168 167 167 167 167 167 167 167 167 167 166 166 166
166 166 166 166 166 166 165 165 165 165 165 165 165 165 165 164 164
164 164 164 164 164 164 164 163 163 163 163 163 163 163 163 163 162
162 162 162 162 162 162 162 162 161 161 161 161 161 161 161 161 161
160 160 160 160 160 160 160 160 160 159 159 159 159 159 159 159 159
159 158 158 158 158 158 158 158 158 158 157 157 157 157 157 157 157
157 157 156 156 156 156 156 156 156 156 156 155 155 155 155 155 155
155 155 155 154 154 154 154 154 154 154 154 154 153 153 153 153 153
153 153 153 153 152 152 152 152 152 152 152 152 152 151 151 151 151
151 151 151 151 151 151 151 151 150 150 150
183 183 183 183 183 183 183 183 183 182 182 182 182 182 182 182 182
182 181 181 181 181 181 181 181 181 181 181 181 181 180 180 180 180
180 180 180 180 180 179 179 179 179 179 179 179 179 179 178 178 178
178 178 178 178 178 178 177 177 177 177 177 177 177 177 177 176 176
176 176 176 176 176 176 176 175 175 175 175 175 175 175 175 175 174
174 174 174 174 174 174 174 174 173 173 173 173 173 173 173 173 173
172 172 172 172 172 172 172 172 172 171 171 171 171 171 171 171 171
171 170 170 170 170 170 170 170 170 170 169 169 169 169 169 169 169
169 169 168 168 168 168 168 168 168 168 168 167 167 167 167 167 167
167 167 167 166 166 166 166 166 166 166 166 166 165 165 165 165 165
165 165 165 165 164 164 164 164 164 164 164 164 164 163 163 163 163
163 163 163 163 163 162 162 162 162 162 162 162 162 162 161 161 161
161 161 161 161 161 161 160 160 160 160 160 160 160 160 160 159 159
159 159 159 159 159 159 159 158 158 158 158 158 158 158 158 158 157
157 157 157 157 157 157 157 157 156 156 156 156 156 156 156 156 156
156 156 156 155 155 155 155 155 155 155 155 155 154 154 154 154 154
154 154 154 154 153 153 153 153 153 153 153 153 153 152 152 152 152
152 152 152 152 152 152 152 152 151 151 151
184 184 184 183 183 183 183 183 183 183 183 183 182 182 182 182 182
182 182 182 182 181 181 181 181 181 181 181 181 181 180 180 180 180
180 180 180 180 180 179 179 179 179 179 179 179 179 179 178 178 178
178 178 178 178 178 178 177 177 177 177 177 177 177 177 177 176 176
176 176 176 176 176 176 176 176 176 176 175 175 175 175 175 175 175
175 175 174 174 174 174 174 174 174 174 174 173 173 173 173 173 173
173 173 173 172 172 172 172 172 172 172 172 172 171 171 171 171 171
171 171 171 171 170 170 170 170 170 170 170 170 170 169 169 169 169
169 169 169 169 169 168 168 168 168 168 168 168 168 168 167 167 167
167 167 167 167 167 167 166 166 166 166 166 166 166 166 166 165 165
165 165 165 165 165 165 165 165 165 165 164 164 164 164 164 164 164
164 164 163 163 163 163 163 163 163 163 163 162 162 162 162 162 162
162 162 162 161 161 161 161 161 161 161 161 161 160 160 160 160 160
160 160 160 160 159 159 159 159 159 159 159 159 159 159 159 159 158
158 158 158 158 158 158 158 158 157 157 157 157 157 157 157 157 157
156 156 156 156 156 156 156 156 156 155 155 155 155 155 155 155 155
155 155 155 155 154 154 154 154 154 154 154 154 154 153 153 153 153
153 153 153 153 153 152 152 152 152 152 152
184 184 184 183 183 183 183 183 183 183 183 183 182 182 182 182 182
182 182 182 182 181 181 181 181 181 181 181 181 181 180 180 180 180
180 180 180 180 180 180 180 180 179 179 179 179 179 179 179 179 179
178 178 178 178 178 178 178 178 178 177 177 177 177 177 177 177 177
177 176 176 176 176 176 176 176 176 176 175 175 175 175 175 175 175
175 175 174 174 174 174 174 174 174 174 174 174 174 174 173 173 173
173 173 173 173 173 173 172 172 172 172 172 172 172 172 172 171 171
171 171 171 171 171 171 171 170 170 170 170 170 170 170 170 170 169
169 169 169 169 169 169 169 169 169 169 169 168 168 168 168 168 168
168 168 168 167 167 167 167 167 167 167 167 167 166 166 166 166 166
166 166 166 166 165 165 165 165 165 165 165 165 165 164 164 164 164
164 164 164 164 164 164 164 164 163 163 163 163 163 163 163 163 163
162 162 162 162 162 162 162 162 162 161 161 161 161 161 161 161 161
161 160 160 160 160 160 160 160 160 160 160 160 160 159 159 159 159
159 159 159 159 159 158 158 158 158 158 158 158 158 158 157 157 157
157 157 157 157 157 157 157 157 157 156 156 156 156 156 156 156 156
156 155 155 155 155 155 155 155 155 155 155 155 155 154 154 154 154
154 154 154 154 154 153 153 153 153 153 153
184 184 184 183 183 183 183 183 183 183 183 183 182 182 182 182 182
182 182 182 182 181 181 181 181 181 181 181 181 181 181 181 181 180
180 180 180 180 180 180 180 180 179 179 179 179 179 179 179 179 179
178 178 178 178 178 178 178 178 178 178 178 178 177 177 177 177 177
177 177 177 177 176 176 176 176 176 176 176 176 176 175 175 175 175
175 175 175 175 175 174 174 174 174 174 174 174 174 174 174 174 174
173 173 173 173 173 173 173 173 173 172 172 172 172 172 172 172 172
172 171 171 171 171 171 171 171 171 171 170 170 170 170 170 170 170
170 170 170 170 170 169 169 169 169 169 169 169 169 169 168 168 168
168 168 168 168 168 168 167 167 167 167 167 167 167 167 167 167 167
167 166 166 166 166 166 166 166 166 166 165 165 165 165 165 165 165
165 165 164 164 164 164 164 164 164 164 164 163 163 163 163 163 163
163 163 163 163 163 163 162 162 162 162 162 162 162 162 162 161 161
161 161 161 161 161 161 161 161 161 161 160 160 160 160 160 160 160
160 160 159 159 159 159 159 159 159 159 159 158 158 158 158 158 158
158 158 158 158 158 158 157 157 157 157 157 157 157 157 157 156 156
156 156 156 156 156 156 156 156 156 156 155 155 155 155 155 155 155
155 155 154 154 154 154 154 154 154 154 154
184 184 184 183 183 183 183 183 183 183 183 183 182 182 182 182 182
182 182 182 182 182 182 182 181 181 181 181 181 181 181 181 181 180
180 180 180 180 180 180 180 180 179 179 179 179 179 179 179 179 179
179 179 179 178 178 178 178 178 178 178 178 178 177 177 177 177 177
177 177 177 177 176 176 176 176 176 176 176 176 176 176 176 176 175
175 175 175 175 175 175 175 175 174 174 174 174 174 174 174 174 174
173 173 173 173 173 173 173 173 173 173 173 173 172 172 172 172 172
172 172 172 172 171 171 171 171 171 171 171 171 171 171 171 171 170
170 170 170 170 170 170 170 170 169 169 169 169 169 169 169 169 169
168 168 168 168 168 168 168 168 168 168 168 168 167 167 167 167 167
167 167 167 167 166 166 166 166 166 166 166 166 166 165 165 165 165
165 165 165 165 165 165 165 165 164 164 164 164 164 164 164 164 164
163 163 163 163 163 163 163 163 163 163 163 163 162 162 162 162 162
162 162 162 162 161 161 161 161 161 161 161 161 161 161 161 161 160
160 160 160 160 160 160 160 160 159 159 159 159 159 159 159 159 159
159 159 159 158 158 158 158 158 158 158 158 158 157 157 157 157 157
157 157 157 157 157 157 157 156 156 156 156 156 156 156 156 156 156
156 156 155 155 155 155 155 155 155 155 155
184 184 184 183 183 183 183 183 183 183 183 183 182 182 182 182 182
182 182 182 182 182 182 182 181 181 181 181 181 181 181 181 181 180
180 180 180 180 180 180 180 180 180 180 180 179 179 179 179 179 179
179 179 179 178 178 178 178 178 178 178 178 178 178 178 178 177 177
177 177 177 177 177 177 177 176 176 176 176 176 176 176 176 176 176
176 176 175 175 175 175 175 175 175 175 175 174 174 174 174 174 174
174 174 174 173 173 173 173 173 173 173 173 173 173 173 173 172 172
172 172 172 172 172 172 172 171 171 171 171 171 171 171 171 171 171
171 171 170 170 170 170 170 170 170 170 170 169 169 169 169 169 169
169 169 169 169 169 169 168 168 168 168 168 168 168 168 168 167 167
167 167 167 167 167 167 167 167 167 167 166 166 166 166 166 166 166
166 166 165 165 165 165 165 165 165 165 165 165 165 165 164 164 164
164 164 164 164 164 164 163 163 163 163 163 163 163 163 163 163 163
163 162 162 162 162 162 162 162 162 162 161 161 161 161 161 161 161
161 161 161 161 161 160 160 160 160 160 160 160 160 160 160 160 160
159 159 159 159 159 159 159 159 159 158 158 158 158 158 158 158 158
158 158 158 158 157 157 157 157 157 157 157 157 157 157 157 157 156
156 156 156 156 156 156 156 156 155 155 155
